{"asset":{"version":"2.0","generator":"babylon.js glTF exporter for 3ds max 2018 v1.3.10"},"scene":0,"scenes":[{"nodes":[0,1,2,3,4,5,6],"extensions":{}}],"nodes":[{"mesh":0,"translation":[0.0,0.0,5.0],"rotation":[0.0,0.0,0.0,1.0],"scale":[1.0,1.0,1.0],"name":"left-flap"},{"mesh":1,"translation":[0.0,0.0,-5.0],"rotation":[0.0,0.0,0.0,1.0],"scale":[1.0,1.0,1.0],"name":"right-flap"},{"mesh":2,"translation":[0.0,0.0,0.0],"rotation":[0.0,0.0,0.0,1.0],"scale":[1.0,1.0,1.0],"name":"inner"},{"mesh":3,"translation":[0.0,-7.083839,1.16841747E-07],"rotation":[0.50000006,-0.49999994,0.49999997,0.50000006],"scale":[1.0,1.0,1.0],"name":"Shape1"},{"mesh":4,"translation":[-10.0,0.0,10.0],"rotation":[0.0,0.0,0.0,1.0],"scale":[1.0,1.0,1.0],"name":"hide"},{"mesh":5,"translation":[-10.0,0.0,10.0],"rotation":[0.0,0.0,0.0,1.0],"scale":[1.0,1.0,1.0],"name":"shadow"},{"translation":[0.0,0.0,0.0],"rotation":[0.0,0.0,0.0,1.0],"scale":[1.0,1.0,1.0],"name":"Default light"}],"meshes":[{"primitives":[{"attributes":{"POSITION":1,"NORMAL":2,"TEXCOORD_0":3},"indices":0,"mode":4,"material":0},{"attributes":{"POSITION":5,"NORMAL":6,"TEXCOORD_0":7},"indices":4,"mode":4,"material":1}],"name":"left-flap"},{"primitives":[{"attributes":{"POSITION":9,"NORMAL":10,"TEXCOORD_0":11},"indices":8,"mode":4,"material":0},{"attributes":{"POSITION":13,"NORMAL":14,"TEXCOORD_0":15},"indices":12,"mode":4,"material":1}],"name":"right-flap"},{"primitives":[{"attributes":{"POSITION":17,"NORMAL":18,"TEXCOORD_0":19},"indices":16,"mode":4,"material":2}],"name":"inner"},{"primitives":[{"attributes":{"POSITION":21,"NORMAL":22},"indices":20,"mode":4,"material":3}],"name":"Shape1"},{"primitives":[{"attributes":{"POSITION":24,"NORMAL":25,"TEXCOORD_0":26},"indices":23}],"name":"hide"},{"primitives":[{"attributes":{"POSITION":28,"NORMAL":29,"TEXCOORD_0":30},"indices":27}],"name":"shadow"}],"accessors":[{"bufferView":0,"componentType":5123,"count":24,"type":"SCALAR","name":"accessorIndices"},{"bufferView":1,"componentType":5126,"count":24,"max":[5.0,0.1,0.0],"min":[-5.0,0.0,-5.0],"type":"VEC3","name":"accessorPositions"},{"bufferView":1,"byteOffset":288,"componentType":5126,"count":24,"type":"VEC3","name":"accessorNormals"},{"bufferView":2,"componentType":5126,"count":24,"type":"VEC2","name":"accessorUVs"},{"bufferView":0,"byteOffset":48,"componentType":5123,"count":6,"type":"SCALAR","name":"accessorIndices"},{"bufferView":1,"byteOffset":576,"componentType":5126,"count":6,"max":[5.0,0.1,0.0],"min":[-5.0,0.1,-5.0],"type":"VEC3","name":"accessorPositions"},{"bufferView":1,"byteOffset":648,"componentType":5126,"count":6,"type":"VEC3","name":"accessorNormals"},{"bufferView":2,"byteOffset":192,"componentType":5126,"count":6,"type":"VEC2","name":"accessorUVs"},{"bufferView":0,"byteOffset":60,"componentType":5123,"count":24,"type":"SCALAR","name":"accessorIndices"},{"bufferView":1,"byteOffset":720,"componentType":5126,"count":24,"max":[5.0,0.1,5.0],"min":[-5.0,0.0,0.0],"type":"VEC3","name":"accessorPositions"},{"bufferView":1,"byteOffset":1008,"componentType":5126,"count":24,"type":"VEC3","name":"accessorNormals"},{"bufferView":2,"byteOffset":240,"componentType":5126,"count":24,"type":"VEC2","name":"accessorUVs"},{"bufferView":0,"byteOffset":108,"componentType":5123,"count":6,"type":"SCALAR","name":"accessorIndices"},{"bufferView":1,"byteOffset":1296,"componentType":5126,"count":6,"max":[5.0,0.1,5.0],"min":[-5.0,0.1,0.0],"type":"VEC3","name":"accessorPositions"},{"bufferView":1,"byteOffset":1368,"componentType":5126,"count":6,"type":"VEC3","name":"accessorNormals"},{"bufferView":2,"byteOffset":432,"componentType":5126,"count":6,"type":"VEC2","name":"accessorUVs"},{"bufferView":0,"byteOffset":120,"componentType":5123,"count":30,"type":"SCALAR","name":"accessorIndices"},{"bufferView":1,"byteOffset":1440,"componentType":5126,"count":30,"max":[5.0,0.0,5.0],"min":[-5.0,-5.0,-5.0],"type":"VEC3","name":"accessorPositions"},{"bufferView":1,"byteOffset":1800,"componentType":5126,"count":30,"type":"VEC3","name":"accessorNormals"},{"bufferView":2,"byteOffset":480,"componentType":5126,"count":30,"type":"VEC2","name":"accessorUVs"},{"bufferView":0,"byteOffset":180,"componentType":5123,"count":4668,"type":"SCALAR","name":"accessorIndices"},{"bufferView":1,"byteOffset":2160,"componentType":5126,"count":4668,"max":[2.45751429,0.487297237,1.39310122],"min":[-2.457515,-0.487297237,-1.39310122],"type":"VEC3","name":"accessorPositions"},{"bufferView":1,"byteOffset":58176,"componentType":5126,"count":4668,"type":"VEC3","name":"accessorNormals"},{"bufferView":0,"byteOffset":9516,"componentType":5123,"count":768,"type":"SCALAR","name":"accessorIndices"},{"bufferView":1,"byteOffset":114192,"componentType":5126,"count":768,"max":[25.0,0.0,5.0],"min":[-5.0,0.0,-25.0],"type":"VEC3","name":"accessorPositions"},{"bufferView":1,"byteOffset":123408,"componentType":5126,"count":768,"type":"VEC3","name":"accessorNormals"},{"bufferView":2,"byteOffset":720,"componentType":5126,"count":768,"type":"VEC2","name":"accessorUVs"},{"bufferView":0,"byteOffset":11052,"componentType":5123,"count":768,"type":"SCALAR","name":"accessorIndices"},{"bufferView":1,"byteOffset":132624,"componentType":5126,"count":768,"max":[25.0,0.0,5.0],"min":[-5.0,0.0,-25.0],"type":"VEC3","name":"accessorPositions"},{"bufferView":1,"byteOffset":141840,"componentType":5126,"count":768,"type":"VEC3","name":"accessorNormals"},{"bufferView":2,"byteOffset":6864,"componentType":5126,"count":768,"type":"VEC2","name":"accessorUVs"},{"bufferView":3,"componentType":5126,"count":48,"max":[4.0],"min":[0.0],"type":"SCALAR","name":"accessorAnimationInput"},{"bufferView":4,"componentType":5126,"count":48,"type":"VEC4","name":"accessorAnimationRotations"},{"bufferView":3,"byteOffset":192,"componentType":5126,"count":38,"max":[4.0],"min":[0.0],"type":"SCALAR","name":"accessorAnimationInput"},{"bufferView":4,"byteOffset":768,"componentType":5126,"count":38,"type":"VEC4","name":"accessorAnimationRotations"},{"bufferView":3,"byteOffset":344,"componentType":5126,"count":56,"max":[4.0],"min":[0.0],"type":"SCALAR","name":"accessorAnimationInput"},{"bufferView":5,"componentType":5126,"count":56,"type":"VEC3","name":"accessorAnimationPositions"},{"bufferView":3,"byteOffset":568,"componentType":5126,"count":49,"max":[4.0],"min":[0.0],"type":"SCALAR","name":"accessorAnimationInput"},{"bufferView":4,"byteOffset":1376,"componentType":5126,"count":49,"type":"VEC4","name":"accessorAnimationRotations"}],"bufferViews":[{"buffer":0,"byteLength":12588,"name":"bufferViewScalar"},{"buffer":0,"byteOffset":12588,"byteLength":151056,"byteStride":12,"name":"bufferViewFloatVec3"},{"buffer":0,"byteOffset":163644,"byteLength":13008,"byteStride":8,"name":"bufferViewFloatVec2"},{"buffer":0,"byteOffset":176652,"byteLength":764,"name":"bufferViewAnimationFloatScalar"},{"buffer":0,"byteOffset":177416,"byteLength":2160,"name":"bufferViewAnimationFloatVec4"},{"buffer":0,"byteOffset":179576,"byteLength":672,"name":"bufferViewAnimationFloatVec3"}],"buffers":[{"uri":"marker.bin","byteLength":180248}],"materials":[{"pbrMetallicRoughness":{"baseColorFactor":[1.0,1.0,1.0,1.0],"metallicFactor":0.4177084,"roughnessFactor":0.9},"emissiveFactor":[0.0,0.0,0.0],"alphaMode":"OPAQUE","name":"white"},{"pbrMetallicRoughness":{"baseColorFactor":[0.999999762,0.999999762,0.999999762,1.0],"baseColorTexture":{"index":0,"texCoord":0},"metallicFactor":0.183333024,"roughnessFactor":0.400000036},"emissiveFactor":[0.0,0.0,0.0],"alphaMode":"OPAQUE","name":"marker-mat"},{"pbrMetallicRoughness":{"baseColorFactor":[1.0,0.4240106,0.4240106,1.0],"metallicFactor":0.7380246,"roughnessFactor":0.44},"emissiveFactor":[0.0,0.0,0.0],"alphaMode":"OPAQUE","name":"Material #111"},{"pbrMetallicRoughness":{"baseColorFactor":[0.609999955,0.609999955,0.609999955,0.170000017],"metallicFactor":0.0,"roughnessFactor":0.39},"emissiveFactor":[0.0,0.0,0.0],"alphaMode":"BLEND","name":"Material #112"}],"textures":[{"sampler":0,"source":0,"name":"marker-mat_baseColor.jpg"}],"images":[{"uri":"marker-mat_baseColor.jpg"}],"samplers":[{"magFilter":9729,"minFilter":9987,"wrapS":10497,"wrapT":10497}],"animations":[{"channels":[{"sampler":0,"target":{"node":0,"path":"rotation"}},{"sampler":1,"target":{"node":1,"path":"rotation"}},{"sampler":2,"target":{"node":3,"path":"translation"}},{"sampler":3,"target":{"node":3,"path":"rotation"}}],"samplers":[{"input":31,"interpolation":"LINEAR","output":32},{"input":33,"interpolation":"LINEAR","output":34},{"input":35,"interpolation":"LINEAR","output":36},{"input":37,"interpolation":"LINEAR","output":38}],"name":"All Animations"}]}